<?xml version="1.0" standalone="no"?>
<!DOCTYPE svg PUBLIC "-//W3C//DTD SVG 20010904//EN"
 "http://www.w3.org/TR/2001/REC-SVG-20010904/DTD/svg10.dtd">
<svg version="1.0" xmlns="http://www.w3.org/2000/svg"
 width="300.000000pt" height="300.000000pt" viewBox="0 0 300.000000 300.000000"
 preserveAspectRatio="xMidYMid meet">
<metadata>
Created by potrace 1.14, written by Peter Selinger 2001-2017
</metadata>
<g transform="translate(0.000000,300.000000) scale(0.100000,-0.100000)"
fill="#000000" stroke="none">
<path d="M1470 2990 c-12 -8 -16 -48 -20 -230 l-5 -221 -191 191 c-105 104
-198 190 -207 190 -23 0 -56 -34 -53 -55 1 -8 104 -118 229 -244 l227 -228 0
-387 0 -388 -260 260 c-143 144 -261 265 -261 269 -1 4 -2 150 -3 323 -2 173
-6 325 -10 338 -6 19 -14 23 -39 20 -20 -2 -35 -11 -42 -24 -7 -13 -10 -119
-9 -288 1 -146 0 -266 -2 -266 -2 0 -79 74 -171 165 -169 168 -182 177 -217
145 -28 -27 -6 -59 149 -213 129 -129 153 -157 134 -157 -13 -1 -130 -1 -258
-1 -193 1 -239 -2 -258 -14 -26 -17 -29 -42 -10 -68 11 -15 45 -17 331 -17
l319 -1 269 -270 270 -269 -381 0 -380 0 -227 225 c-226 223 -256 245 -281
213 -31 -40 -27 -45 173 -244 l196 -194 -225 0 c-192 0 -228 -2 -241 -16 -21
-21 -20 -47 2 -67 15 -14 51 -17 241 -19 l222 -3 -190 -190 c-195 -193 -213
-219 -179 -253 25 -25 55 -12 115 51 34 34 137 137 230 230 l169 167 372 0
c205 0 372 -3 372 -6 0 -3 -124 -130 -276 -281 l-276 -276 -317 -1 c-341 -1
-351 -3 -351 -52 0 -43 26 -47 302 -46 142 0 258 -2 258 -5 0 -3 -62 -67 -138
-143 -77 -75 -141 -146 -144 -157 -8 -31 10 -53 43 -53 24 0 52 23 173 145 79
80 146 145 148 145 2 0 4 -124 4 -276 -1 -256 0 -277 17 -289 20 -14 54 -12
70 4 5 5 10 148 11 339 l2 329 277 277 277 277 0 -387 0 -387 -222 -224 c-122
-123 -226 -230 -231 -238 -9 -17 6 -50 28 -59 30 -11 63 15 238 193 99 100
181 181 183 181 2 0 4 -96 4 -213 0 -195 2 -215 18 -230 23 -21 46 -22 66 -1
14 13 16 49 16 235 l0 220 193 -194 c150 -151 198 -193 216 -192 29 2 51 29
44 54 -3 11 -106 121 -229 245 l-224 227 0 385 0 386 271 -271 270 -271 3
-324 c2 -345 4 -356 51 -356 47 0 49 13 47 301 -1 148 0 269 4 269 3 0 75 -70
161 -155 85 -85 158 -155 163 -155 4 0 19 9 33 20 18 14 23 26 20 41 -3 11
-73 88 -155 170 -101 101 -144 149 -131 150 10 0 132 1 271 1 l253 0 15 24
c17 25 11 59 -11 68 -8 3 -157 6 -331 7 l-317 1 -268 268 c-148 147 -269 271
-269 274 0 3 173 6 384 6 l384 0 233 -230 c129 -126 241 -230 251 -230 23 0
48 27 48 51 0 13 -71 91 -196 215 l-195 194 215 0 c228 0 246 4 246 50 0 46
-18 50 -243 50 l-212 0 194 194 c173 173 193 197 187 219 -7 28 -35 42 -63 32
-10 -3 -117 -104 -238 -225 l-220 -220 -387 0 c-214 0 -388 3 -388 6 0 3 118
123 263 268 l263 263 334 1 c302 2 336 4 347 19 18 23 16 40 -6 62 -17 17 -36
18 -282 17 -145 -1 -270 0 -276 2 -7 2 57 74 142 159 130 130 155 159 155 184
0 33 -32 53 -60 39 -9 -5 -80 -72 -158 -149 -78 -78 -144 -141 -147 -141 -2 0
-3 118 -3 261 2 246 1 262 -17 275 -10 8 -26 14 -36 14 -41 0 -43 -19 -45
-346 l-3 -315 -270 -269 c-149 -149 -274 -270 -278 -270 -4 0 -7 171 -5 380
l2 380 223 225 c122 124 225 234 229 245 9 23 -21 60 -49 60 -9 0 -103 -88
-210 -196 l-193 -195 0 220 c0 186 -2 222 -16 235 -17 18 -42 20 -64 6z"/>
</g>
</svg>
